Coordinates
version=1
nRows=14
nColumns=33
inDegrees=yes

Units are S.I. units (second, meters, Newtons, ...)
Angles are in degrees.

endheader
time	ground_thorax_rot_x	ground_thorax_rot_y	ground_thorax_rot_z	ground_thorax_tx	ground_thorax_ty	ground_thorax_tz	clav_prot_r	clav_elev_r	scapula_abduction_r	scapula_elevation_r	scapula_upward_rot_r	scapula_winging_r	shoulder_elv_r	plane_of_elev_r	axial_rot_r	elbow_flexion_r	pro_sup_r	wrist_flex_r	wrist_dev_r	clav_prot_l	clav_elev_l	scapula_abduction_l	scapula_elevation_l	scapula_upward_rot_l	scapula_winging_l	shoulder_elv_l	plane_of_elev_l	axial_rot_l	elbow_flexion_l	pro_sup_l	wrist_flex_l	wrist_dev_l
      5.65000000	     21.90533792	     34.12318723	     53.17220285	    -85.64871143	    775.86231613	      9.73427781	     13.25667895	     37.88037264	     33.79599584	     45.00000000	    -41.41592447	  -1164.40848048	  -3718.92545634	    148.51358898	   -121.37123200	    730.71619125	     27.52963669	     18.00089184	     10.50835564	      7.68318639	    -45.00000000	    -35.66243262	     45.00000000	    -45.00000000	   2615.83123643	  -2810.40180387	     16.35892923	    -66.51181370	    727.42839349	     22.71339134	     10.29664189	    -18.66099554
      5.66000000	     22.14451367	     33.94943525	     52.79318119	    -87.10660082	    776.39416141	      9.72179332	     13.25538581	     37.93624098	     33.90378110	     45.00000000	    -41.19445399	  -1164.52316395	  -3718.85820656	    148.47286100	   -121.43598850	    730.82058672	     27.56384188	     18.05904402	     10.44919785	      7.68361371	    -45.00000000	    -35.69500042	     45.00000000	    -45.00000000	   2615.80872004	  -2810.32302674	     16.52605836	    -66.15864171	    727.53970854	     22.57439932	     10.24039857	    -18.69772532
      5.67000000	     22.54066372	     33.62068286	     52.16311008	    -88.63922268	    776.95690402	      9.70176027	     13.18332154	     37.83614643	     34.08257604	     45.00000000	    -40.78697381	  -1164.63846863	  -3718.95103486	    148.37750790	   -121.34900402	    730.85185952	     27.62891136	     18.12472791	     10.46974860	      7.70755048	    -45.00000000	    -35.70562319	     45.00000000	    -45.00000000	   2615.76394221	  -2810.32483979	     16.80932493	    -65.72959177	    727.51269796	     22.43859546	     10.14768618	    -18.69971190
      5.68000000	     22.70354196	     33.51575851	     51.87576501	    -90.25118486	    777.55350912	      9.67366191	     13.24736456	     38.06616699	     34.13422250	     45.00000000	    -40.62495351	  -1164.75315703	  -3718.76548292	    148.37122343	   -121.42006111	    731.02841346	     27.64681969	     18.17836640	     10.32762209	      7.66833368	    -45.00000000	    -35.73483145	     45.00000000	    -45.00000000	   2615.72597370	  -2810.15960834	     16.91623881	    -65.28641652	    727.70920954	     22.28734521	     10.12420677	    -18.75547957
      5.69000000	     22.88061455	     33.40780684	     51.57628123	    -91.94145985	    778.18370151	      9.63753538	     13.27884084	     38.18227703	     34.23931298	     45.00000000	    -40.48969677	  -1164.88806475	  -3718.61361131	    148.36885007	   -121.66552884	    731.15068995	     27.66260333	     18.22672845	     10.20673164	      7.65468382	    -45.00000000	    -35.84833076	     45.00000000	    -45.00000000	   2615.70827086	  -2810.03926939	     17.00789104	    -64.90692203	    727.88356365	     22.13100481	     10.08479119	    -18.80758454
      5.70000000	     23.12416677	     33.24697138	     51.14471417	    -93.71291512	    778.84893286	      9.59361913	     13.28799718	     38.27707824	     34.35886743	     45.00000000	    -40.26962548	  -1165.02144807	  -3718.48927546	    148.34622509	   -121.85970245	    731.24746796	     27.70518576	     18.28253242	     10.11498299	      7.65245030	    -45.00000000	    -35.92353818	     45.00000000	    -45.00000000	   2615.67428054	  -2809.92215394	     17.17614962	    -64.45084909	    728.00758187	     21.94781855	     10.02895366	    -18.84475743
      5.71000000	     23.36855772	     33.05233753	     50.74707702	    -95.56984743	    779.55219106	      9.54284301	     13.28839582	     38.27118264	     34.47729848	     45.00000000	    -40.11605773	  -1165.15782398	  -3718.37606340	    148.24908367	   -122.03140634	    731.35472491	     27.75469366	     18.34079281	     10.01886795	      7.65958211	    -45.00000000	    -35.98720752	     45.00000000	    -45.00000000	   2615.70419850	  -2809.82821396	     17.33937908	    -64.03248964	    728.12525346	     21.74727219	      9.96782988	    -18.88049290
      5.72000000	     23.65514933	     32.83405295	     50.22444563	    -97.51412540	    780.29602622	      9.48499067	     13.28552133	     38.33680732	     34.60419987	     45.00000000	    -39.87429556	  -1165.28049001	  -3718.27842869	    148.19213476	   -122.17771611	    731.47944083	     27.82773388	     18.41117820	      9.93066178	      7.65278264	    -45.00000000	    -36.03425020	     45.00000000	    -45.00000000	   2615.67778308	  -2809.70128080	     17.55442645	    -63.49129636	    728.21233322	     21.50669268	      9.89804025	    -18.90629946
      5.73000000	     23.95642967	     32.60685713	     49.67531311	    -99.55005640	    781.08439525	      9.41920719	     13.28061413	     38.41146862	     34.72838727	     45.00000000	    -39.59316866	  -1165.41253952	  -3718.17643052	    148.14621494	   -122.27670050	    731.59245680	     27.92677301	     18.47686566	      9.82635858	      7.63990734	    -45.00000000	    -36.08274776	     45.00000000	    -45.00000000	   2615.64047140	  -2809.57706911	     17.76820234	    -62.91309732	    728.29160021	     21.23753440	      9.83604602	    -18.92990515
      5.74000000	     24.14975184	     32.47136722	     49.28985868	   -101.67972152	    781.91890022	      9.34286129	     13.32144969	     38.45661621	     34.88356532	     45.00000000	    -39.47881697	  -1165.59186276	  -3718.02305484	    148.14344507	   -122.58568862	    731.73529576	     28.02465866	     18.53825020	      9.68233343	      7.63123214	    -45.00000000	    -36.25555493	     45.00000000	    -45.00000000	   2615.65509557	  -2809.42699044	     17.88097329	    -62.45314077	    728.46483182	     20.94593322	      9.82917866	    -18.97773977
      5.75000000	     24.55097578	     32.17428427	     48.60688253	   -103.90105015	    782.80052230	      9.25477698	     13.27385561	     38.54585624	     35.00483152	     45.00000000	    -39.10830173	  -1165.71568888	  -3717.91903447	    148.05769617	   -122.63295037	    731.85377128	     28.16827326	     18.62476715	      9.60451108	      7.63294626	    -45.00000000	    -36.20677215	     45.00000000	    -45.00000000	   2615.64085623	  -2809.33726266	     18.17091627	    -61.78408824	    728.52399894	     20.60990194	      9.71228934	    -18.99253863
      5.76000000	     24.80134718	     32.00527678	     48.09802060	   -106.21576558	    783.72983539	      9.15375456	     13.31703053	     38.64358909	     35.16067218	     45.00000000	    -38.89792913	  -1165.88201680	  -3717.76315998	    148.05647378	   -122.81603684	    731.95667850	     28.31483895	     18.67427651	      9.44666059	      7.60814538	    -45.00000000	    -36.36761091	     45.00000000	    -45.00000000	   2615.59043067	  -2809.18315493	     18.31871337	    -61.16304113	    728.65773947	     20.25410068	      9.73080792	    -19.03180969
      5.77000000	     25.21160378	     31.69151108	     47.39343022	   -108.61947318	    784.70617701	      9.04153091	     13.27145912	     38.73978086	     35.30863305	     45.00000000	    -38.47783601	  -1166.05327778	  -3717.64321655	    147.99003687	   -122.86054951	    732.11928730	     28.47053912	     18.77063474	      9.35598717	      7.59975038	    -45.00000000	    -36.34014684	     45.00000000	    -45.00000000	   2615.61019092	  -2809.05676056	     18.60767195	    -60.49159481	    728.74408277	     19.87219316	      9.60678801	    -19.05298196
      5.78000000	     25.67380978	     31.30073548	     46.53974733	   -111.10920751	    785.72893878	      8.92096443	     13.20894717	     38.77528003	     35.49162557	     45.00000000	    -37.89760735	  -1166.27359966	  -3717.61936955	    147.92485713	   -122.85094631	    732.28494287	     28.62699874	     18.87286553	      9.27940523	      7.60422527	    -45.00000000	    -36.26184164	     45.00000000	    -45.00000000	   2615.62757371	  -2808.95053953	     19.02765175	    -59.71073761	    728.76299725	     19.47219576	      9.48455689	    -19.05725188
